# xmcd
#
# Track frame offsets: 
#        150
#        13992
#        28754
#        46706
#        58386
#        73093
#        84837
#        96591
#        108473
#        124554
#
# Disc length: 1814 seconds
#
# Revision: 0
# Processed by: cddbd v1.5.2PL0 Copyright (c) Steve Scherf et al.
# Submitted via: ExactAudioCopy v0.99pb4
#
DISCID=8707140a
DTITLE=The Supremes - The Supremes
DYEAR=1975
DGENRE=Soul
TTITLE0=He's My Man
TTITLE1=Early Morning Love
TTITLE2=Where Is It I Belong
TTITLE3=It's All Been Said Before
TTITLE4=This Is Why I Believe in You
TTITLE5=You Can't Stop a Girl in Love
TTITLE6=Color My World Blue
TTITLE7=Give Out, But Don't Give Up
TTITLE8=Where Do I Go from Here
TTITLE9=You Turn Me Around
EXTD=
EXTT0=
EXTT1=
EXTT2=
EXTT3=
EXTT4=
EXTT5=
EXTT6=
EXTT7=
EXTT8=
EXTT9=
PLAYORDER=
